<?xml version="1.0" encoding="UTF-8" standalone="no"?><!DOCTYPE svg PUBLIC "-//W3C//DTD SVG 1.1//EN" "http://www.w3.org/Graphics/SVG/1.1/DTD/svg11.dtd"><svg width="100%" height="100%" viewBox="0 0 2000 2000" version="1.1" xmlns="http://www.w3.org/2000/svg" xmlns:xlink="http://www.w3.org/1999/xlink" xml:space="preserve" xmlns:serif="http://www.serif.com/" style="fill-rule:evenodd;clip-rule:evenodd;stroke-linejoin:round;stroke-miterlimit:2;"><rect id="Artboard2" x="0" y="0" width="2000" height="2000" style="fill:none;"/><clipPath id="_clip1"><rect x="0" y="0" width="2000" height="2000"/></clipPath><g clip-path="url(#_clip1)"><rect x="-2.643" y="0" width="2000" height="2000" style="fill:#fff;"/><path d="M1514.12,1171.32c26.485,-0 47.958,18.751 47.958,41.88l0,178.655c0,0.013 -0.01,0.024 -0.024,0.024l-182.023,-0c-0.013,-0 -0.024,-0.011 -0.024,-0.024l0,-30.458c0,-29.399 -27.296,-53.231 -60.967,-53.231l-645.752,0c-33.672,0 -60.968,23.832 -60.968,53.231l0,30.458c0,0.013 -0.011,0.024 -0.024,0.024l-182.023,-0c-0.013,-0 -0.024,-0.011 -0.024,-0.024l-0,-178.655c-0,-23.129 21.473,-41.88 47.959,-41.88l1035.91,-0Zm-0,0.048l-1035.91,-0c-26.458,-0 -47.911,18.727 -47.911,41.832l-0,178.631l181.975,-0l-0,-30.434c-0,-29.424 27.316,-53.279 61.016,-53.279l645.752,-0c33.699,-0 61.015,23.855 61.015,53.279l0,30.434l181.975,-0l0,-178.631c0,-23.105 -21.453,-41.832 -47.91,-41.832Z"/><g><g><path d="M1161.13,582.568c-19.409,14.372 -36.896,29.806 -53.359,60.941c17.137,-15.712 37.192,-41.265 65.036,-60.251c15.451,1.02 33.988,2.422 44.423,1.312c17.231,-1.834 58.312,-1.06 58.312,-1.06c-15.461,5.208 -29.596,22.566 -19.438,14.466c10.162,-8.102 23.857,-13.502 54.779,-13.502c37.108,-0 63.171,-23.144 64.496,-20.828c1.326,2.313 -11.043,53.616 -18.112,84.09c-7.066,30.473 5.743,87.563 8.834,107.621c1.833,11.881 7.214,22.917 10.574,29.969c30.002,9.221 61.663,20.978 95.586,33.543c55.195,20.448 68.512,25.222 71.622,26.285c-195.766,-58.962 -270.518,-63 -366.245,-39.432c-95.869,23.603 -137.958,15.188 -137.958,15.188c67.607,0 135.15,-35.326 190.644,-49.302c-10.882,1.225 -17.52,2.726 -15.301,1.492c0.69,-0.384 1.772,-1.125 3.124,-2.115c8.149,-5.982 26.032,-21.028 26.032,-21.028c-0,-0 -23.413,16.199 -36.225,21.6c-12.811,5.4 -42.409,2.315 -72.889,4.243c-30.481,1.929 -41.085,0.385 -59.637,1.157c-18.554,0.772 -58.312,25.459 -50.818,6.944c7.497,-18.514 3.108,-67.119 4.873,-87.949c1.765,-20.83 1.328,-82.161 2.649,-92.576c1.328,-10.415 -7.948,-28.932 -7.508,-34.332c0.444,-5.398 14.577,7.716 28.716,8.873c14.135,1.156 35.341,8.486 50.802,8.486c15.46,0 34.457,-2.701 45.5,-3.857c2.539,-0.266 6.572,-0.206 11.488,0.022Z" style="fill-rule:nonzero;"/></g><g><path d="M842.72,582.881c28.133,19.025 48.34,44.812 65.59,60.628c-15.696,-29.686 -32.324,-45.098 -50.661,-58.925c8.917,0.958 18.775,1.819 27.506,1.819c15.463,0 36.666,-7.33 50.803,-8.486c14.135,-1.157 28.272,-14.271 28.714,-8.873c0.442,5.4 -8.836,23.917 -7.51,34.332c1.326,10.415 0.884,71.746 2.651,92.576c1.768,20.83 -2.621,69.435 4.873,87.949c7.497,18.515 -32.263,-6.172 -50.815,-6.944c-18.554,-0.772 -29.156,0.772 -59.638,-1.157c-30.482,-1.928 -60.079,1.157 -72.891,-4.243c-12.809,-5.401 -36.222,-21.6 -36.222,-21.6c-0,-0 17.883,15.046 26.032,21.028c1.349,0.99 2.432,1.731 3.124,2.115c0.617,0.343 0.542,0.474 -0.112,0.458c54.056,15.048 118.648,47.352 183.302,47.352c-0,0 -42.089,8.415 -137.958,-15.188c-95.727,-23.568 -170.48,-19.53 -366.242,39.43c3.112,-1.061 16.428,-5.837 71.619,-26.283c30.475,-11.287 59.118,-21.917 86.38,-30.649c3.021,-6.642 9.826,-19.209 11.93,-32.863c3.091,-20.058 15.903,-77.148 8.834,-107.621c-7.066,-30.474 -19.436,-81.777 -18.112,-84.09c1.326,-2.316 27.39,20.828 64.497,20.828c30.923,-0 44.616,5.4 54.778,13.502c10.16,8.1 -3.977,-9.258 -19.438,-14.466c0,-0 41.084,-0.774 58.312,1.06c17.229,1.833 56.544,-3.182 67.588,-2.024c0.964,0.101 1.989,0.214 3.066,0.335Z" style="fill-rule:nonzero;"/></g></g><path d="M1527.15,886.429c-19.29,0.314 -38.58,0.695 -57.87,1.009l-226.281,3.406c-29.27,0.374 -58.54,0.733 -87.81,1.034c-27.887,0.287 -55.775,0.517 -83.663,0.732c-12.779,0.098 -25.559,0.156 -38.338,0.205c-11.659,0.044 -23.318,0.068 -34.976,0.072c-11.227,0.004 -22.453,-0.018 -33.68,-0.049c-11.598,-0.032 -23.197,-0.069 -34.795,-0.14c-23.968,-0.148 -47.937,-0.305 -71.905,-0.518c-24.423,-0.216 -48.846,-0.482 -73.269,-0.769c-24.191,-0.285 -48.381,-0.589 -72.57,-0.947l-241.99,-4.035c35.737,-0.596 71.471,-1.32 107.207,-1.916l207.353,-3.066c24.423,-0.287 48.846,-0.553 73.269,-0.769c23.968,-0.213 47.937,-0.37 71.905,-0.518c11.598,-0.071 23.197,-0.108 34.795,-0.14c11.227,-0.031 22.453,-0.053 33.68,-0.049c11.658,0.004 23.317,0.028 34.976,0.073c12.779,0.048 25.559,0.106 38.338,0.205c27.888,0.214 55.776,0.444 83.663,0.731l173.564,2.22l198.397,3.229Z"/><path d="M1527.15,1122.39c-19.29,0.314 -38.58,0.695 -57.87,1.009l-226.281,3.405c-29.27,0.375 -58.54,0.733 -87.81,1.035c-27.887,0.287 -55.775,0.517 -83.663,0.731c-12.779,0.098 -25.559,0.157 -38.338,0.205c-11.659,0.044 -23.318,0.069 -34.976,0.073c-11.227,0.004 -22.453,-0.018 -33.68,-0.049c-11.598,-0.032 -23.197,-0.069 -34.795,-0.141c-23.968,-0.147 -47.937,-0.305 -71.905,-0.517c-24.423,-0.217 -48.846,-0.482 -73.269,-0.77c-24.191,-0.284 -48.381,-0.588 -72.57,-0.946l-241.99,-4.035c35.737,-0.596 71.471,-1.321 107.207,-1.917l207.353,-3.065c24.423,-0.287 48.846,-0.553 73.269,-0.77c23.968,-0.212 47.937,-0.369 71.905,-0.517c11.598,-0.072 23.197,-0.108 34.795,-0.14c11.227,-0.032 22.453,-0.053 33.68,-0.049c11.658,0.004 23.317,0.028 34.976,0.072c12.779,0.049 25.559,0.107 38.338,0.205c27.888,0.214 55.776,0.445 83.663,0.732l173.564,2.22l198.397,3.229Z"/><path d="M1265.17,1078.27c0.038,-0.004 0.073,-0.021 0.111,-0.025c0.03,-0.003 3.852,0.417 8.943,0.704c1.672,0.094 8.642,0.603 17.572,0.32c2.929,-0.093 4.867,-0.23 5.564,-0.268c7.326,-0.4 12.415,-1.196 13.519,-1.344c5.558,-0.748 10.092,-1.697 13.465,-2.511c0.75,-0.18 5.4,-1.154 11.416,-3.119c0.948,-0.31 0.944,-0.32 1.555,-0.515c3.057,-0.977 5.137,-1.782 5.54,-1.925c2.818,-0.998 4.769,-1.818 5.104,-1.947c2.668,-1.029 4.511,-1.859 4.897,-2.022c2.75,-1.165 4.652,-2.103 4.952,-2.241c5.584,-2.57 9.401,-4.9 10.102,-5.297c5.391,-3.056 9.113,-5.778 9.895,-6.321c5.085,-3.528 8.502,-6.521 9.32,-7.201c7.312,-6.085 12.475,-11.9 15.478,-15.529c0.363,-0.438 5.078,-5.887 9.048,-12.347c0.11,-0.179 0.834,-1.357 1.326,-2.274c-0.403,1.329 -2.551,7.798 -7.376,16.539c-0.01,0.019 -0.914,1.636 -2.212,3.745c-4.351,7.07 -8.55,12.287 -11.093,15.285c-0,0.001 -0.802,0.926 -1.886,2.111c-2.656,2.905 -5.017,5.206 -6.776,6.851c-0.098,0.091 -1.652,1.52 -3.757,3.283c-2.67,2.236 -4.89,3.9 -6.216,4.872c-0.002,0.001 -0.7,0.497 -1.631,1.131c-3.412,2.327 -6.465,4.152 -8.906,5.524c-0.001,-0 -1.81,0.994 -4.284,2.207c-0.585,0.286 -1.04,0.503 -1.175,0.568c-0.005,0.002 -0.863,0.4 -2.003,0.9c-1.587,0.696 -2.829,1.201 -3.387,1.426c-0.001,0.001 -0.552,0.212 -1.267,0.476c-2.018,0.746 -3.617,1.277 -4.43,1.543c-0.001,0 -0.958,0.298 -2.231,0.665c-2.347,0.676 -4.167,1.123 -4.223,1.136c-5.453,1.262 -10.211,1.992 -13.97,2.447c-0.005,0 -1.591,0.173 -3.715,0.336c-3.957,0.303 -7.659,0.417 -11.027,0.416c-0.028,-0 -2.312,-0.013 -5.386,-0.158c-3.624,-0.172 -6.704,-0.446 -8.966,-0.682c-0.002,0 -2.185,-0.239 -5.121,-0.67c-6.763,-0.993 -12.772,-2.29 -17.686,-3.513c-0.033,-0.008 -2.322,-0.589 -5.386,-1.472c-1.905,-0.55 -3.406,-1.013 -3.697,-1.104Z"/><g transform="matrix(0.912897,0,1.89927e-32,1,47.4197,0)"><g transform="matrix(77.197,0,0,77.197,1338.75,1016.36)"></g><text x="743.145px" y="1016.36px" style="font-family:'MinnePetat', 'Minne Petat';font-weight:800;font-stretch:semi-expanded;font-size:77.197px;">EZEESLEEP</text></g><g transform="matrix(0.768031,0,1.89927e-32,1,176.959,0)"><g transform="matrix(27.4901,0,0,27.4901,1307.34,1072.05)"></g><text x="833.627px" y="1072.05px" style="font-family:'Chailce-Noggin-Regular', 'Chailce-Noggin';font-size:27.49px;">U <tspan x="861.529px " y="1072.05px "> </tspan>L <tspan x="889.597px " y="1072.05px "> </tspan>T <tspan x="921.183px " y="1072.05px "> </tspan>I <tspan x="941.553px " y="1072.05px "> </tspan>M <tspan x="975.778px " y="1072.05px "> </tspan>A <tspan x="1012.01px " y="1072.05px "> </tspan>T <tspan x="1043.6px " y="1072.05px "> </tspan>E <tspan x="1071.11px 1074.14px 1077.16px 1080.19px " y="1072.05px 1072.05px 1072.05px 1072.05px ">    </tspan>C <tspan x="1112.32px " y="1072.05px "> </tspan>O <tspan x="1147.65px " y="1072.05px "> </tspan>M <tspan x="1181.87px " y="1072.05px "> </tspan>F <tspan x="1209.17px " y="1072.05px "> </tspan>O <tspan x="1244.5px " y="1072.05px "> </tspan>R <tspan x="1278.78px " y="1072.05px "> </tspan>T</text></g><g><path d="M1313.35,918.514c14.195,0 25.719,11.525 25.719,25.72c0,14.195 -11.524,25.72 -25.719,25.72c-14.195,-0 -25.72,-11.525 -25.72,-25.72c-0,-14.195 11.525,-25.72 25.72,-25.72Zm-0,1.897c-13.149,-0 -23.824,10.675 -23.824,23.823c0,13.149 10.675,23.823 23.824,23.823c13.148,0 23.823,-10.674 23.823,-23.823c-0,-13.148 -10.675,-23.823 -23.823,-23.823Z"/><g transform="matrix(0.985763,0,2.4991e-32,1,7.44508,0)"><g transform="matrix(43.3486,0,0,43.3486,1336.92,959.114)"></g><text x="1311.16px" y="959.114px" style="font-family:'BerlinSansFB-Reg', 'Berlin Sans FB';font-size:43.349px;">R</text></g></g><path d="M1516.53,1171.34l-1035.91,-0c-26.472,-0 -47.935,18.739 -47.935,41.856l-0,178.655l182.023,-0l-0,-30.458c-0,-29.411 27.306,-53.255 60.992,-53.255l645.752,0c33.685,0 60.991,23.844 60.991,53.255l0,30.458l182.023,-0l0,-178.655c0,-23.117 -21.463,-41.856 -47.934,-41.856Z" style="fill-rule:nonzero;"/><path d="M1556.91,1398.82l-0,34.143c-0,1.963 -1.592,3.555 -3.556,3.555l-155.663,0c-1.964,0 -3.556,-1.592 -3.556,-3.555l0,-34.143c0,-1.964 1.592,-3.556 3.556,-3.556l155.663,0c1.964,0 3.556,1.592 3.556,3.556Zm-3.556,0l-155.663,0l-0,34.143l155.663,-0l0,-34.143Z"/><path d="M602.863,1398.82l-0,34.143c-0,1.963 -1.592,3.555 -3.556,3.555l-155.663,0c-1.964,0 -3.556,-1.592 -3.556,-3.555l0,-34.143c0,-1.964 1.592,-3.556 3.556,-3.556l155.663,0c1.964,0 3.556,1.592 3.556,3.556Zm-3.556,0l-155.663,0l-0,34.143l155.663,-0l0,-34.143Z"/><g><rect x="439.356" y="1398.82" width="155.663" height="34.142"/><rect x="1402.13" y="1398.82" width="155.663" height="34.142"/></g></g></svg>