<?xml version="1.0" encoding="UTF-8" standalone="no"?><!DOCTYPE svg PUBLIC "-//W3C//DTD SVG 1.1//EN" "http://www.w3.org/Graphics/SVG/1.1/DTD/svg11.dtd"><svg width="100%" height="100%" viewBox="0 0 2000 2000" version="1.1" xmlns="http://www.w3.org/2000/svg" xmlns:xlink="http://www.w3.org/1999/xlink" xml:space="preserve" xmlns:serif="http://www.serif.com/" style="fill-rule:evenodd;clip-rule:evenodd;stroke-linejoin:round;stroke-miterlimit:2;"><rect id="Artboard3" x="0" y="0" width="2000" height="2000" style="fill:none;"/><clipPath id="_clip1"><rect x="0" y="0" width="2000" height="2000"/></clipPath><g clip-path="url(#_clip1)"><rect x="-11.035" y="0" width="2000" height="2000" style="fill:#fff;"/><path d="M1711.11,841.277c-25.952,0.423 -51.902,0.935 -77.854,1.358l-304.425,4.581c-39.378,0.504 -78.756,0.986 -118.134,1.392c-37.518,0.386 -75.037,0.696 -112.556,0.984c-17.192,0.132 -34.385,0.211 -51.578,0.276c-15.684,0.059 -31.369,0.092 -47.054,0.097c-15.103,0.006 -30.207,-0.024 -45.31,-0.065c-15.604,-0.044 -31.208,-0.093 -46.812,-0.189c-32.245,-0.199 -64.491,-0.41 -96.736,-0.696c-32.858,-0.292 -65.715,-0.649 -98.572,-1.036c-32.545,-0.383 -65.089,-0.792 -97.632,-1.273l-325.557,-5.429c48.077,-0.802 96.152,-1.776 144.229,-2.578l278.96,-4.124c32.857,-0.386 65.714,-0.744 98.572,-1.035c32.245,-0.286 64.491,-0.498 96.736,-0.696c15.604,-0.097 31.208,-0.146 46.812,-0.189c15.103,-0.042 30.207,-0.071 45.31,-0.066c15.685,0.005 31.37,0.038 47.054,0.098c17.193,0.065 34.386,0.143 51.578,0.275c37.519,0.288 75.038,0.598 112.556,0.984l233.501,2.987l266.912,4.344Z"/><path d="M1711.11,1158.72c-25.952,0.422 -51.902,0.935 -77.854,1.357l-304.425,4.582c-39.378,0.504 -78.756,0.986 -118.134,1.392c-37.518,0.386 -75.037,0.696 -112.556,0.984c-17.192,0.132 -34.385,0.21 -51.578,0.275c-15.684,0.06 -31.369,0.093 -47.054,0.098c-15.103,0.005 -30.207,-0.024 -45.31,-0.066c-15.604,-0.043 -31.208,-0.092 -46.812,-0.189c-32.245,-0.198 -64.491,-0.41 -96.736,-0.696c-32.858,-0.291 -65.715,-0.649 -98.572,-1.035c-32.545,-0.383 -65.089,-0.792 -97.632,-1.273l-325.557,-5.429c48.077,-0.802 96.152,-1.776 144.229,-2.578l278.96,-4.124c32.857,-0.387 65.714,-0.744 98.572,-1.036c32.245,-0.286 64.491,-0.497 96.736,-0.696c15.604,-0.096 31.208,-0.145 46.812,-0.189c15.103,-0.041 30.207,-0.071 45.31,-0.065c15.685,0.005 31.37,0.038 47.054,0.097c17.193,0.065 34.386,0.144 51.578,0.276c37.519,0.288 75.038,0.598 112.556,0.984l233.501,2.987l266.912,4.344Z"/><path d="M1346.8,1099.37c0.051,-0.005 0.098,-0.028 0.149,-0.033c0.041,-0.004 5.182,0.56 12.032,0.946c2.25,0.127 11.626,0.812 23.64,0.431c3.94,-0.124 6.548,-0.309 7.486,-0.361c9.856,-0.537 16.702,-1.608 18.186,-1.808c7.478,-1.006 13.578,-2.283 18.115,-3.377c1.01,-0.243 7.266,-1.553 15.359,-4.197c1.275,-0.417 1.271,-0.43 2.092,-0.692c4.113,-1.315 6.911,-2.397 7.454,-2.59c3.79,-1.343 6.415,-2.445 6.867,-2.62c3.588,-1.384 6.068,-2.5 6.588,-2.72c3.7,-1.567 6.258,-2.829 6.662,-3.015c7.512,-3.457 12.647,-6.592 13.59,-7.126c7.252,-4.111 12.26,-7.773 13.313,-8.503c6.841,-4.747 11.438,-8.773 12.538,-9.689c9.837,-8.186 16.782,-16.01 20.824,-20.892c0.487,-0.589 6.83,-7.919 12.171,-16.61c0.149,-0.241 1.122,-1.826 1.784,-3.06c-0.541,1.788 -3.431,10.491 -9.923,22.251c-0.014,0.025 -1.23,2.201 -2.976,5.039c-5.853,9.511 -11.503,16.529 -14.923,20.563c-0.001,0.001 -1.079,1.245 -2.538,2.84c-3.573,3.907 -6.749,7.004 -9.116,9.217c-0.132,0.123 -2.223,2.044 -5.054,4.416c-3.592,3.008 -6.579,5.247 -8.363,6.555c-0.003,0.002 -0.942,0.668 -2.194,1.522c-4.591,3.13 -8.698,5.585 -11.982,7.431c-0,-0 -2.435,1.338 -5.763,2.969c-0.787,0.385 -1.4,0.677 -1.581,0.764c-0.007,0.003 -1.161,0.538 -2.694,1.211c-2.136,0.937 -3.807,1.616 -4.557,1.919c-0.002,0.001 -0.742,0.285 -1.705,0.64c-2.715,1.004 -4.866,1.718 -5.96,2.076c-0.001,0 -1.288,0.401 -3.001,0.894c-3.158,0.91 -5.606,1.512 -5.682,1.529c-7.335,1.698 -13.737,2.679 -18.793,3.292c-0.007,0 -2.141,0.233 -4.999,0.452c-5.324,0.408 -10.304,0.56 -14.835,0.559c-0.037,0 -3.11,-0.017 -7.246,-0.212c-4.875,-0.231 -9.018,-0.6 -12.062,-0.917c-0.003,-0 -2.94,-0.322 -6.889,-0.902c-9.1,-1.336 -17.184,-3.08 -23.795,-4.726c-0.044,-0.011 -3.123,-0.792 -7.246,-1.981c-2.563,-0.739 -4.581,-1.363 -4.973,-1.485Z" style="fill:#03045e;"/><g transform="matrix(0.912897,0,1.89927e-32,1,33.8827,0)"><g transform="matrix(103.856,0,0,103.856,1457.65,1016.07)"></g><text x="656.362px" y="1016.07px" style="font-family:'MinnePetat', 'Minne Petat';font-weight:800;font-stretch:semi-expanded;font-size:103.856px;fill:#03045e;">EZEESLEEP</text></g><g transform="matrix(0.768031,0,1.89927e-32,1,158.407,0)"><g transform="matrix(36.9836,0,0,36.9836,1415.39,1091)"></g><text x="778.091px" y="1091px" style="font-family:'Chailce-Noggin-Regular', 'Chailce-Noggin';font-size:36.984px;fill:#03045e;">U <tspan x="815.629px " y="1091px "> </tspan>L <tspan x="853.389px " y="1091px "> </tspan>T <tspan x="895.883px " y="1091px "> </tspan>I <tspan x="923.288px " y="1091px "> </tspan>M <tspan x="969.333px " y="1091px "> </tspan>A <tspan x="1018.08px " y="1091px "> </tspan>T <tspan x="1060.57px " y="1091px "> </tspan>E <tspan x="1097.59px 1101.66px 1105.73px 1109.8px " y="1091px 1091px 1091px 1091px ">    </tspan>C <tspan x="1153.03px " y="1091px "> </tspan>O <tspan x="1200.55px " y="1091px "> </tspan>M <tspan x="1246.6px " y="1091px "> </tspan>F <tspan x="1283.32px " y="1091px "> </tspan>O <tspan x="1330.85px " y="1091px "> </tspan>R <tspan x="1376.97px " y="1091px "> </tspan>T</text></g><g><path d="M1411.62,884.443c19.098,-0 34.602,15.504 34.602,34.602c0,19.097 -15.504,34.601 -34.602,34.601c-19.097,0 -34.601,-15.504 -34.601,-34.601c-0,-19.098 15.504,-34.602 34.601,-34.602Zm0,2.551c-17.689,0 -32.05,14.361 -32.05,32.051c-0,17.689 14.361,32.05 32.05,32.05c17.689,0 32.051,-14.361 32.051,-32.05c-0,-17.69 -14.362,-32.051 -32.051,-32.051Z" style="fill:#03045e;"/><g transform="matrix(0.985763,0,2.4991e-32,1,4.95801,0)"><g transform="matrix(58.3186,0,0,58.3186,1443.32,939.063)"></g><text x="1408.67px" y="939.063px" style="font-family:'BerlinSansFB-Reg', 'Berlin Sans FB';font-size:58.319px;fill:#03045e;">R</text></g></g></g></svg>